<svg width="679" height="778" viewBox="0 0 679 778" fill="none" xmlns="http://www.w3.org/2000/svg">
<path fill-rule="evenodd" clip-rule="evenodd" d="M234.643 38.0436C317.33 30.5413 411.308 -22.9925 477.389 27.3143C543.65 77.7577 507.449 185.385 532.545 264.831C557.322 343.271 654.001 411.814 622.898 487.963C591.232 565.49 473.262 549.029 399.959 589.435C340.118 622.42 302.942 700.444 234.643 701.975C166.171 703.51 121.863 633.415 63.8569 596.97C-0.0815125 556.797 -90.163 546.161 -122.222 477.755C-154.887 408.057 -122.514 326.483 -96.9372 253.879C-71.9475 182.94 -41.1046 109.652 21.8977 68.6416C83.4629 28.5671 161.502 44.6798 234.643 38.0436Z" fill="#C4C4C4"/>
<path fill-rule="evenodd" clip-rule="evenodd" d="M234.643 38.0436C317.33 30.5413 411.308 -22.9925 477.389 27.3143C543.65 77.7577 507.449 185.385 532.545 264.831C557.322 343.271 654.001 411.814 622.898 487.963C591.232 565.49 473.262 549.029 399.959 589.435C340.118 622.42 302.942 700.444 234.643 701.975C166.171 703.51 121.863 633.415 63.8569 596.97C-0.0815125 556.797 -90.163 546.161 -122.222 477.755C-154.887 408.057 -122.514 326.483 -96.9372 253.879C-71.9475 182.94 -41.1046 109.652 21.8977 68.6416C83.4629 28.5671 161.502 44.6798 234.643 38.0436Z" fill="url(#paint0_linear)"/>
<path fill-rule="evenodd" clip-rule="evenodd" d="M100.029 422.112C138.524 424.135 163.997 460.127 195.163 482.852C226.293 505.55 263.142 521.163 281.994 554.793C303.489 593.138 321.604 639.936 306.331 681.166C291.164 722.11 245.455 741.584 205.954 760.064C172.711 775.617 136.688 779.189 100.029 777.685C64.8158 776.241 30.2486 770.111 0.224289 751.625C-31.7029 731.967 -62.6843 706.449 -73.8661 670.618C-84.9957 634.955 -71.4927 597.461 -58.8579 562.305C-46.6062 528.214 -29.7895 496.402 -2.64757 472.454C26.664 446.591 61.0212 420.061 100.029 422.112Z" fill="url(#paint1_linear)" fill-opacity="0.5"/>
<g clip-path="url(#clip0)">
<path d="M165.09 439.062L320.152 528.536C322.058 529.503 324.166 530.007 326.304 530.007C328.442 530.007 330.55 529.503 332.457 528.536L626.055 359.09C629.451 357.13 629.451 353.948 626.055 351.988L470.979 262.514C469.072 261.548 466.965 261.044 464.827 261.044C462.689 261.044 460.581 261.548 458.674 262.514L165.09 431.961C161.694 433.935 161.694 437.102 165.09 439.062Z" fill="#192EAD"/>
<path d="M248.894 480.632C251.537 481.97 254.457 482.667 257.419 482.667C260.382 482.667 263.302 481.97 265.945 480.632C270.662 477.905 270.662 473.531 265.945 470.776C263.302 469.438 260.382 468.741 257.419 468.741C254.457 468.741 251.537 469.438 248.894 470.776C244.177 473.503 244.177 477.962 248.894 480.632Z" fill="#2D41BA"/>
<path d="M320.152 528.55L165.09 439.076C162.049 437.33 161.737 434.603 164.124 432.643C162.608 433.842 161.363 435.347 160.469 437.061C159.576 438.774 159.054 440.656 158.938 442.584V448.365C159.052 450.499 159.669 452.576 160.738 454.427C161.807 456.278 163.298 457.85 165.09 459.016L320.152 548.49C322.049 549.477 324.166 549.965 326.304 549.91V530.013C324.162 530.055 322.045 529.552 320.152 528.55Z" fill="#2D41BA"/>
<path d="M626.055 379.072C627.845 377.904 629.335 376.331 630.404 374.481C631.473 372.63 632.091 370.554 632.207 368.42V362.64C632.087 360.711 631.562 358.829 630.666 357.116C629.77 355.403 628.523 353.898 627.007 352.699C629.408 354.658 629.095 357.385 626.055 359.146L332.456 528.55C330.56 529.54 328.442 530.029 326.304 529.971V549.967C328.442 550.026 330.56 549.537 332.456 548.547L626.055 379.072Z" fill="#24246B"/>
<path d="M345.713 510.002L199.362 425.527C197.316 424.349 197.316 422.446 199.362 421.267L440.089 282.27C441.234 281.689 442.499 281.386 443.783 281.386C445.067 281.386 446.333 281.689 447.478 282.27L593.9 366.73C595.946 367.895 595.946 369.812 593.9 370.991L353.088 510.002C351.946 510.583 350.682 510.886 349.401 510.886C348.119 510.886 346.856 510.583 345.713 510.002Z" fill="#FAFAFA"/>
<path d="M307.647 396.342L394.222 446.291L339.574 477.834C338.619 478.311 337.566 478.559 336.498 478.559C335.43 478.559 334.377 478.311 333.422 477.834L252.999 431.422C252.628 431.296 252.306 431.057 252.078 430.738C251.849 430.42 251.727 430.038 251.727 429.646C251.727 429.255 251.849 428.873 252.078 428.554C252.306 428.236 252.628 427.997 252.999 427.871L307.647 396.342Z" fill="#E6E6E6"/>
<path d="M394.15 446.291L383.949 405.758C383.717 404.791 383.179 403.924 382.414 403.287C381.64 402.631 380.682 402.229 379.672 402.137L307.59 396.342L394.15 446.291Z" fill="#E0E0E0"/>
<path d="M394.153 446.291L316.672 443.096C315.744 443.058 314.86 442.692 314.177 442.062C313.495 441.432 313.06 440.58 312.949 439.659L307.578 396.328L394.153 446.291Z" fill="#E0E0E0"/>
<path d="M394.153 446.291L316.672 443.096C315.744 443.058 314.86 442.692 314.177 442.062C313.495 441.432 313.06 440.58 312.949 439.659L307.578 396.328L317.141 438.934C317.227 439.314 317.432 439.656 317.725 439.911C318.019 440.167 318.387 440.322 318.775 440.355L394.153 446.291Z" fill="#FAFAFA"/>
<path d="M324.968 442.954L336.506 479.595L339.589 477.82L324.968 442.954Z" fill="#FAFAFA"/>
<path d="M249.93 429.632L253.013 427.857L313.415 436.293L249.93 429.632Z" fill="#FAFAFA"/>
<path d="M356.894 378.121L425.765 417.887C426.718 418.37 427.772 418.621 428.841 418.621C429.91 418.621 430.964 418.37 431.917 417.887L529.66 361.504C530.031 361.378 530.354 361.139 530.582 360.821C530.81 360.502 530.933 360.12 530.933 359.729C530.933 359.337 530.81 358.955 530.582 358.637C530.354 358.318 530.031 358.079 529.66 357.953L460.789 318.187C459.836 317.704 458.782 317.453 457.713 317.453C456.644 317.453 455.591 317.704 454.637 318.187L356.894 374.57C356.523 374.696 356.201 374.935 355.972 375.253C355.744 375.572 355.621 375.954 355.621 376.345C355.621 376.737 355.744 377.119 355.972 377.437C356.201 377.756 356.523 377.995 356.894 378.121Z" fill="#E6E6E6"/>
<path d="M411.659 372.866C410.838 371.592 410.352 370.131 410.245 368.619C410.138 367.108 410.414 365.593 411.048 364.217C412.327 361.376 415.112 358.649 419.388 356.192C424.078 353.437 429.254 351.609 434.635 350.81C439.883 350.054 445.226 350.246 450.406 351.378C455.75 352.54 460.876 354.539 465.596 357.3C470.162 359.923 473.269 362.631 474.917 365.424C475.722 366.613 476.203 367.992 476.312 369.424C476.422 370.856 476.157 372.292 475.542 373.59C474.292 376.246 471.663 378.731 467.684 381.032C463.87 383.336 459.578 384.735 455.138 385.122C451.442 385.482 447.723 384.72 444.467 382.935C443.883 382.682 443.36 382.308 442.932 381.838C442.503 381.368 442.179 380.813 441.981 380.208C441.886 379.685 441.932 379.147 442.114 378.648C442.297 378.149 442.609 377.707 443.018 377.368C440.729 377.554 438.425 377.396 436.183 376.899C433.986 376.426 431.876 375.611 429.931 374.485C426.654 372.591 424.939 370.537 424.788 368.321C424.636 366.105 426.204 364.07 429.491 362.214C433.457 359.89 437.996 358.724 442.592 358.848C447.286 358.952 451.874 360.258 455.919 362.64C457.593 363.573 459.086 364.8 460.324 366.262C461.308 367.344 461.951 368.693 462.171 370.139L449.383 377.552C448.346 378.149 447.778 378.674 447.693 379.129C447.607 379.583 447.977 380.066 448.787 380.549C450.556 381.408 452.581 381.58 454.47 381.032C457.253 380.381 459.915 379.293 462.356 377.808C465.567 375.962 467.599 373.974 468.452 371.886C468.879 370.873 469.042 369.768 468.925 368.675C468.808 367.582 468.416 366.537 467.784 365.637C466.069 363.189 463.788 361.191 461.134 359.814C455.682 356.59 449.518 354.76 443.188 354.488C436.768 354.307 430.43 355.974 424.93 359.288C421.434 361.305 419.189 363.435 418.195 365.679C417.696 366.724 417.476 367.88 417.556 369.034C417.636 370.189 418.012 371.303 418.65 372.269C420.371 374.801 422.695 376.866 425.413 378.277C427.219 379.31 429.123 380.161 431.097 380.819C432.938 381.455 434.844 381.884 436.78 382.097C436.987 382.113 437.189 382.166 437.377 382.253C437.476 382.253 437.476 382.438 437.377 382.623L435.501 385.25C435.424 385.352 435.333 385.443 435.231 385.52C434.955 385.614 434.655 385.614 434.379 385.52C432.036 385.224 429.73 384.682 427.502 383.901C425.172 383.128 422.925 382.124 420.795 380.904C416.39 378.547 413.35 375.777 411.659 372.866ZM441.284 374.101C443.244 374.35 445.232 373.977 446.968 373.036L454.399 368.776C453.519 367.284 452.219 366.084 450.662 365.324C448.29 363.934 445.597 363.185 442.847 363.151C440.108 363.104 437.409 363.811 435.047 365.197C432.972 366.39 431.963 367.568 432.02 368.733C432.02 369.897 433.185 371.105 435.359 372.354C437.183 373.365 439.205 373.966 441.284 374.116V374.101Z" fill="#FAFAFA"/>
<path d="M536.609 314.495C537.193 314.796 537.841 314.953 538.498 314.953C539.156 314.953 539.804 314.796 540.388 314.495C540.614 314.416 540.81 314.269 540.948 314.075C541.086 313.88 541.161 313.647 541.161 313.408C541.161 313.169 541.086 312.936 540.948 312.742C540.81 312.547 540.614 312.4 540.388 312.322C539.801 312.031 539.154 311.88 538.498 311.88C537.843 311.88 537.196 312.031 536.609 312.322C536.383 312.4 536.187 312.547 536.049 312.742C535.91 312.936 535.836 313.169 535.836 313.408C535.836 313.647 535.91 313.88 536.049 314.075C536.187 314.269 536.383 314.416 536.609 314.495Z" fill="#2D41BA"/>
<path d="M542.634 331.594C543.803 332.189 545.095 332.499 546.407 332.499C547.718 332.499 549.011 332.189 550.179 331.594C552.268 330.401 552.268 328.441 550.179 327.248C549.011 326.653 547.718 326.343 546.407 326.343C545.095 326.343 543.803 326.653 542.634 327.248C540.503 328.441 540.503 330.401 542.634 331.594Z" fill="#2D41BA"/>
<path d="M537.321 324.024C538.742 323.215 538.642 321.88 537.15 321.028L512.341 306.698C511.544 306.271 510.656 306.04 509.752 306.026C508.847 306.011 507.952 306.212 507.141 306.612C505.72 307.408 505.834 308.757 507.312 309.609L532.12 323.925C532.919 324.346 533.806 324.575 534.709 324.592C535.612 324.609 536.506 324.415 537.321 324.024Z" fill="#2D41BA"/>
<path d="M165.664 173.415C165.743 171.889 166.181 170.404 166.945 169.081C167.708 167.758 168.773 166.635 170.055 165.802L394.882 36.0651C396.244 35.3717 397.751 35.0103 399.28 35.0103C400.808 35.0103 402.315 35.3717 403.677 36.0651L408.622 38.9055C409.901 39.7364 410.966 40.8578 411.729 42.1783C412.492 43.4988 412.932 44.9809 413.013 46.5037V218.777C412.925 220.3 412.483 221.781 411.72 223.103C410.958 224.425 409.897 225.55 408.622 226.389L183.795 356.126C182.433 356.813 180.929 357.171 179.404 357.171C177.879 357.171 176.375 356.813 175.014 356.126L170.055 353.286C168.78 352.447 167.719 351.322 166.956 350C166.194 348.678 165.752 347.196 165.664 345.673V173.415Z" fill="#F2F2F2"/>
<path opacity="0.4" d="M166.941 169.083L179.417 176.269L411.732 42.2005C410.992 40.8641 409.927 39.7358 408.635 38.9198L403.662 36.0793C402.302 35.3861 400.797 35.0247 399.271 35.0247C397.745 35.0247 396.24 35.3861 394.881 36.0793L170.067 165.802C168.757 166.605 167.679 167.736 166.941 169.083Z" fill="white"/>
<path opacity="0.1" d="M165.664 173.4V345.645C165.745 347.171 166.187 348.657 166.952 349.98C167.718 351.303 168.786 352.426 170.069 353.257L175.014 356.098C175.396 356.32 175.801 356.501 176.221 356.637C176.809 356.831 177.413 356.969 178.026 357.049C179.181 357.199 180.352 357.156 181.493 356.921C181.781 356.863 182.066 356.787 182.345 356.694C182.527 356.645 182.703 356.579 182.871 356.495C182.539 356.638 182.181 356.711 181.82 356.711C181.458 356.711 181.1 356.638 180.768 356.495C180.308 356.188 179.939 355.761 179.701 355.261C179.464 354.761 179.366 354.206 179.418 353.655V181.311C179.375 180.53 179.57 179.754 179.979 179.087C180.387 178.419 180.99 177.892 181.706 177.576L179.418 176.241L166.943 169.055C166.155 170.372 165.715 171.867 165.664 173.4Z" fill="black"/>
<path opacity="0.2" d="M179.418 176.269L283.541 215.155C287.142 216.494 291.092 216.568 294.741 215.365C298.39 214.162 301.52 211.754 303.618 208.537L320.342 182.973L412.558 41.746L323.667 183.896L413.012 218.848C412.922 220.408 412.432 221.919 411.591 223.236L323.425 184.294L303.988 215.396C301.831 218.848 298.502 221.407 294.61 222.602C290.718 223.797 286.525 223.548 282.802 221.901L268.977 215.794L180.754 356.481C180.293 356.174 179.925 355.747 179.687 355.247C179.449 354.747 179.352 354.192 179.404 353.641V350.8L268.536 215.68L179.418 176.269Z" fill="black"/>
<path d="M205.178 136.049L189.804 127.201L189.661 127.115C182.841 123.267 173.492 123.849 163.133 129.814C142.289 141.843 125.395 171.1 125.395 195.144C125.395 207.145 129.657 215.595 136.406 219.543L150.388 227.511L153.727 221.929C157.531 221.065 161.182 219.628 164.554 217.669C185.399 205.64 202.293 176.383 202.293 152.339C202.292 149.093 201.896 145.86 201.114 142.71L205.178 136.049Z" fill="#00CDBF"/>
<path d="M177.71 138.207C156.851 150.237 139.957 179.493 139.957 203.538C139.957 227.582 156.851 237.353 177.696 225.324C198.54 213.295 215.449 184.024 215.449 159.994C215.449 135.963 198.555 126.164 177.71 138.207Z" fill="#29FFC6"/>
<path d="M165.975 184.634C165.841 184.496 165.743 184.325 165.691 184.14C165.639 183.954 165.634 183.758 165.677 183.569C165.748 183.057 165.943 182.569 166.245 182.149L177.91 164.837C178.209 164.425 178.493 164.013 178.806 163.615C179.066 163.244 179.399 162.929 179.786 162.692L184.049 160.278C184.19 160.173 184.359 160.112 184.535 160.102C184.711 160.093 184.886 160.136 185.037 160.225C185.189 160.315 185.311 160.447 185.388 160.605C185.465 160.764 185.493 160.941 185.469 161.116V201.081C185.447 201.584 185.295 202.073 185.029 202.501C184.794 202.943 184.446 203.316 184.02 203.58L179.672 206.08C179.528 206.189 179.355 206.257 179.175 206.274C178.994 206.292 178.812 206.259 178.649 206.179C178.5 206.076 178.382 205.934 178.307 205.769C178.232 205.604 178.203 205.422 178.223 205.242V174.693L170.621 185.955C170.37 186.367 170.005 186.698 169.57 186.907C169.412 186.986 169.236 187.02 169.06 187.005C168.885 186.99 168.717 186.926 168.575 186.822L165.975 184.634Z" fill="white"/>
<path d="M573.735 33.3956C557.709 25.9108 522.405 13.4542 490.859 30.7018C448.544 53.8794 446.34 111.823 462.998 183.544C474.363 232.611 448.49 252.86 431 260.742C417.5 266.656 383.7 274.936 356.5 260.742" stroke="#18317F" stroke-width="1.6" stroke-miterlimit="10" stroke-linecap="round" stroke-dasharray="4.88 5.86"/>
<path d="M585.801 41.3504L575.195 54.4579L626.959 73.8027L603.58 22.0056L592.667 36.0532L606.38 52.9031L585.801 41.3504Z" fill="url(#paint2_linear)"/>
</g>
<defs>
<linearGradient id="paint0_linear" x1="629" y1="354" x2="-147.25" y2="354" gradientUnits="userSpaceOnUse">
<stop stop-color="#00C6FF"/>
<stop offset="1" stop-color="#0072FF"/>
</linearGradient>
<linearGradient id="paint1_linear" x1="312" y1="600" x2="-83.7353" y2="600" gradientUnits="userSpaceOnUse">
<stop stop-color="#00C6FF"/>
<stop offset="1" stop-color="#0072FF"/>
</linearGradient>
<linearGradient id="paint2_linear" x1="575.195" y1="47.9042" x2="626.959" y2="47.9042" gradientUnits="userSpaceOnUse">
<stop stop-color="#0CEBEB"/>
<stop offset="0.5" stop-color="#20E3B2"/>
<stop offset="1" stop-color="#29FFC6"/>
</linearGradient>
<clipPath id="clip0">
<rect width="658" height="606" fill="white" transform="translate(21)"/>
</clipPath>
</defs>
</svg>
