<svg width="649" height="855" viewBox="0 0 649 855" fill="none" xmlns="http://www.w3.org/2000/svg">
<path fill-rule="evenodd" clip-rule="evenodd" d="M442.721 19.8096C494.98 29.1201 541.187 50.3981 587.245 76.7875C639.477 106.714 710.799 125.335 727.722 183.105C744.655 240.907 690.002 292.928 666.849 348.531C646.105 398.351 642.448 458.811 599.38 491.331C556.057 524.043 497.007 517.481 442.721 517.764C388.123 518.049 333.988 516.811 284.869 492.971C227.942 465.341 164.635 432.587 143.988 372.772C123.264 312.73 161.481 251.11 180.466 190.496C199.7 129.085 201.284 52.7372 255.22 17.6341C308.92 -17.3165 379.642 8.57137 442.721 19.8096Z" fill="url(#paint0_linear)"/>
<path fill-rule="evenodd" clip-rule="evenodd" d="M653.619 662.71C631.446 697.632 610.446 733.807 574.558 754.388C528.957 780.538 470.059 821.723 425.708 793.407C379.203 763.714 416.536 684.141 389.347 636.135C363.136 589.858 282.865 582.04 276.126 529.304C269.589 478.156 319.646 436.218 359.648 403.729C395.141 374.902 440.982 368.133 485.805 359.005C529.67 350.073 574.698 335.617 616.615 351.402C659.523 367.56 698.056 401.335 713.158 444.619C727.329 485.236 703.76 527.257 692.438 568.73C683.287 602.25 672.241 633.381 653.619 662.71Z" fill="url(#paint1_linear)" fill-opacity="0.6"/>
<path d="M407.086 237.121L421.554 223.431L450.664 237.121L445.591 375.818H421.404L407.086 237.121Z" fill="#EBEFF7"/>
<path d="M389.001 605.172C387.161 606.096 385.174 606.688 383.129 606.921L359.516 601.25C367.237 598.902 373.409 594.98 375.308 592.132C376.45 589.337 377.077 586.357 377.157 583.339C377.457 580.066 377.531 577.168 377.531 577.168L390.275 575.27C390.275 575.27 390.275 578.742 390.275 583.314C390.35 591.882 390.2 604.248 389.001 605.172Z" fill="#24246B"/>
<path d="M390.324 583.314C385.937 583.891 381.493 583.891 377.105 583.314C377.405 580.041 377.48 577.143 377.48 577.143L390.224 575.245C390.224 575.245 390.299 578.742 390.324 583.314Z" fill="url(#paint2_linear)"/>
<path d="M473.257 605.797C473.257 605.797 456.091 611.543 452.268 610.793C448.445 610.044 450.994 601.05 451.618 595.979C451.852 591.991 451.785 587.991 451.418 584.013C451.093 579.367 450.669 575.295 450.669 575.295H463.712C463.712 575.295 463.912 579.367 464.187 583.564C464.412 587.086 464.687 590.708 464.986 592.157C465.636 595.305 473.257 605.797 473.257 605.797Z" fill="#24246B"/>
<path d="M464.186 583.538C460.763 583.788 456.34 583.938 451.418 583.988C451.093 579.342 450.668 575.27 450.668 575.27H463.712C463.712 575.27 463.961 579.267 464.186 583.538Z" fill="url(#paint3_linear)"/>
<path d="M467.861 364.676V476.643C467.861 485.561 465.937 578.442 465.937 578.442H450.045C450.045 578.442 440.5 494.779 440.175 480.165C439.85 465.551 433.478 400.949 433.478 400.949L433.353 401.424L412.814 470.922C409.862 482.119 407.626 493.492 406.117 504.972C403.269 525.632 391.125 578.442 391.125 578.442H375.258L382.254 475.394L393.399 363.402C413.936 366.027 434.67 366.771 455.342 365.625C459.515 365.401 463.688 365.076 467.861 364.676Z" fill="url(#paint4_linear)"/>
<path d="M383.228 607.071C383.228 607.071 375.332 596.579 364.638 599.451C353.943 602.324 356.442 606.122 358.341 607.071C366.491 609.267 375.078 609.267 383.228 607.071Z" fill="#3535AA"/>
<path d="M472.634 609.944C470.135 610.444 451.319 611.543 450.345 609.944C449.37 608.345 450.995 603.249 456.392 602.3C461.789 601.35 472.634 604.798 474.208 606.447C475.782 608.095 474.208 609.619 472.634 609.944Z" fill="#3535AA"/>
<path d="M467.862 364.676V476.643C467.862 485.561 465.938 578.442 465.938 578.442H461.765C462.997 561.073 462.906 543.636 461.491 526.281C458.992 497.003 457.343 486.186 461.491 451.536C464.789 423.832 458.167 381.588 455.344 365.625C459.517 365.4 463.689 365.076 467.862 364.676Z" fill="url(#paint5_linear)"/>
<path d="M433.351 401.424L412.811 470.922C409.86 482.119 407.623 493.492 406.115 504.972C403.266 525.631 391.122 578.442 391.122 578.442H386.125C390.854 561.332 394.32 543.898 396.495 526.281C399.643 504.372 395.395 502.873 401.917 470.922C405.09 455.334 415.91 440.72 419.083 422.258C421.328 408.05 424.952 394.095 429.903 380.589L433.351 401.424Z" fill="url(#paint6_linear)"/>
<path d="M495.224 406.895C495.224 406.895 497.448 427.579 496.798 428.828C496.149 430.077 478.083 436.573 475.809 430.427C472.635 421.834 475.809 374.769 475.809 374.769C475.809 374.769 475.484 358.531 478.982 359.18C482.481 359.83 495.224 406.895 495.224 406.895Z" fill="#152C68"/>
<path d="M478.355 389.807C478.355 389.807 476.431 367.549 478.355 364.676C480.279 361.803 482.802 362.178 486.625 379.315C490.448 396.452 491.073 409.842 493.622 411.116C495.758 411.992 498.017 412.532 500.318 412.715C500.318 412.715 485.026 351.935 480.903 351.935C476.78 351.935 471.658 356.707 472.632 388.508C472.632 388.533 473.582 400.299 478.355 389.807Z" fill="#192EAD"/>
<path d="M436.676 200.548L436.301 211.664L436.051 219.009L435.727 229.176C423.233 247.313 414.387 229.176 414.387 229.176L413.138 217.51L412.738 213.713L412.488 211.365L436.676 200.548Z" fill="url(#paint7_linear)"/>
<path d="M436.304 211.665L436.054 219.009C432.905 223.006 428.757 227.253 425.534 227.253C421.286 227.253 415.964 221.158 413.04 217.51L412.641 213.713C418.538 210.191 429.957 210.915 436.304 211.665Z" fill="#4463C6"/>
<path d="M402.618 191.28C402.618 191.28 399.644 180.263 400.844 174.892C400.951 174.22 401.22 173.584 401.628 173.038C402.036 172.493 402.57 172.056 403.185 171.763C403.8 171.47 404.477 171.332 405.157 171.359C405.837 171.386 406.501 171.578 407.09 171.919C406.34 170.44 406.053 168.769 406.267 167.125C406.481 165.48 407.186 163.939 408.29 162.701C412.163 158.229 427.93 156.156 437.175 160.028C446.421 163.9 440.748 172.219 440.748 172.219C440.748 172.219 452.343 169.246 444.322 189.706L426.456 197.2L402.618 191.555V191.28Z" fill="#192EAD"/>
<path d="M407.991 190.98C407.991 190.98 403.518 186.209 402.019 189.181C400.52 192.154 403.818 203.196 410.965 202.596L407.991 190.98Z" fill="url(#paint8_linear)"/>
<path d="M439.2 190.98C439.2 190.98 443.673 186.209 445.147 189.181C446.621 192.154 443.373 203.196 436.227 202.596L439.2 190.98Z" fill="url(#paint9_linear)"/>
<path d="M440.144 189.781C440.144 190.455 438.945 209.466 438.045 212.989C436.231 217.192 433.005 220.629 428.925 222.706C428.056 223.123 427.113 223.361 426.151 223.406C422.477 223.149 419.026 221.548 416.456 218.909C415.027 217.623 413.775 216.153 412.733 214.538C410.359 210.665 407.086 189.831 407.086 189.831C409.137 186.657 410.246 182.967 410.284 179.189C410.336 178.274 410.336 177.356 410.284 176.441C410.284 176.441 426.376 170.195 437.096 176.741C437.101 176.782 437.101 176.824 437.096 176.865C437.083 181.35 438.128 185.775 440.144 189.781Z" fill="url(#paint10_linear)"/>
<path d="M440.153 189.806C440.153 190.481 438.953 209.491 438.054 213.014C436.24 217.217 433.014 220.654 428.934 222.732C436.78 217.411 440.053 190.481 440.153 189.806Z" fill="#4864D8"/>
<path d="M437.178 176.691C437.184 176.732 437.184 176.774 437.178 176.816C426.158 174.317 414.339 177.765 410.316 179.139C410.368 178.224 410.368 177.306 410.316 176.391C410.316 176.391 426.483 170.146 437.178 176.691Z" fill="#4864D8"/>
<path d="M426.479 368.498C421.172 368.595 415.867 368.269 410.612 367.524C404.933 366.838 399.36 365.454 394.02 363.402L390.847 282.287C390.847 282.287 385.85 298.6 384.275 305.52C384.015 306.448 383.872 307.405 383.851 308.368C384.175 310.866 387.998 328.728 387.998 328.728L369.533 335.723C369.533 335.723 360.312 317.611 360.312 311.566C360.312 305.52 373.681 247.313 376.529 242.842C379.378 238.37 414.385 229.177 414.385 229.177L426.479 368.498Z" fill="url(#paint11_linear)"/>
<path d="M467.761 310.591C467.942 309.115 467.942 307.621 467.761 306.145C467.111 302.972 462.763 289.282 462.763 289.282C463.388 296.926 467.761 370.097 467.761 370.097C463.538 370.097 458.64 370.097 454.143 369.747C446.372 369.273 439.75 368.498 439.75 368.498L436.477 229.177C449.607 230.665 462.399 234.321 474.332 239.994C476.256 241.268 489.625 303.921 489.625 306.469C489.625 309.017 484.202 327.454 484.202 327.454L466.237 322.458H466.062C466.062 322.458 466.062 322.258 466.062 321.933C466.386 320.284 467.336 315.038 467.761 310.941V310.691V310.591Z" fill="url(#paint12_linear)"/>
<path d="M410.616 367.524C404.937 366.838 399.364 365.454 394.024 363.402L390.851 282.287C390.851 282.287 385.853 298.6 384.279 305.52L380.031 318.011L393.399 258.205C397.356 274.435 398.647 291.199 397.223 307.843C395.473 330.002 410.291 347.064 410.616 367.524Z" fill="url(#paint13_linear)"/>
<path d="M462.761 289.282C463.386 296.926 467.759 370.097 467.759 370.097C463.536 370.097 458.638 370.097 454.141 369.747C462.062 354.034 459.488 321.808 456.939 306.144C454.066 288.657 456.939 253.983 456.939 253.983C456.939 253.983 468.708 298.2 468.708 299.799C468.708 301.398 467.834 309.042 467.659 310.591C467.84 309.114 467.84 307.621 467.659 306.144C467.209 302.972 462.761 289.282 462.761 289.282Z" fill="url(#paint14_linear)"/>
<path d="M404.542 377.092C404.108 378.379 403.41 379.562 402.493 380.564C400.731 382.446 398.617 383.965 396.272 385.036C387.351 371.046 369.535 335.723 369.535 335.723L382.154 330.951L388.001 328.728C388.775 330.526 391.649 341.218 395.297 352.91C398.945 364.601 404.542 377.092 404.542 377.092Z" fill="url(#paint15_linear)"/>
<path d="M404.545 377.092C404.111 378.379 403.413 379.562 402.496 380.564C399.997 369.098 394.3 365.575 391.177 352.585C389.285 344.958 386.244 337.663 382.156 330.951L388.003 328.728C388.778 330.526 391.651 341.218 395.3 352.91C398.948 364.601 404.545 377.092 404.545 377.092Z" fill="#4864D8"/>
<path d="M390.848 334.448C390.848 334.448 371.433 341.443 370.484 342.068C369.534 342.692 364.137 331.9 364.137 331.9L389.249 322.982C389.249 322.982 392.248 332.375 390.848 334.448Z" fill="#00CDBF"/>
<path d="M450.667 230.75C450.667 230.75 446.844 324.656 472.781 348.013L468.808 356.732C468.808 356.732 438.598 326.504 443.371 230.126C443.371 230.126 445.894 228.527 450.667 230.75Z" fill="#192EAD"/>
<path d="M479.956 380.914C480.581 382.813 481.206 393.63 478.357 394.904C475.239 395.681 472.006 395.893 468.812 395.528C468.812 395.528 479.632 407.319 478.032 407.619C476.433 407.919 466.588 399.35 465.939 397.452C465.289 395.553 461.166 379.64 461.491 371.371C461.816 363.102 465.939 321.733 465.939 321.733L477.133 325.28L484.079 327.454C482.03 333.874 471.036 371.996 471.036 371.996V372.145C473.26 377.342 476.683 389.807 476.683 389.807C476.683 389.807 479.307 378.99 479.956 380.914Z" fill="url(#paint16_linear)"/>
<path d="M471.033 371.921V372.07L467.785 375.743C471.583 365.875 469.684 355.383 474.132 343.267C476.293 337.491 477.287 331.343 477.055 325.18L484.002 327.354C482.028 333.874 471.033 371.921 471.033 371.921Z" fill="#4864D8"/>
<path d="M463.391 319.46L488.528 326.454C487.256 329.835 485.771 333.131 484.08 336.322C477.17 335.01 470.364 333.198 463.715 330.901C463.391 330.326 463.391 319.46 463.391 319.46Z" fill="#00CDBF"/>
<path d="M180.229 596.904C180.108 598.472 179.78 600.017 179.254 601.5C179.254 601.5 146.446 602.474 134.652 601.5C122.858 600.526 129.23 588.46 133.703 585.912C134.256 585.608 134.855 585.397 135.477 585.287C140.324 584.388 148.245 587.985 152.168 586.861C156.76 584.99 161.141 582.637 165.237 579.841L178.38 581.165C179.83 586.28 180.454 591.593 180.229 596.904Z" fill="#24246B"/>
<path d="M180.229 596.904C180.108 598.472 179.78 600.017 179.254 601.5C179.254 601.5 146.446 602.474 134.652 601.5C122.858 600.526 129.23 588.46 133.703 585.912C134.256 585.608 134.855 585.397 135.477 585.287C137.975 585.962 140.924 589.234 143.248 598.328C143.248 598.328 167.985 599.252 180.229 596.904Z" fill="#EBF0F2"/>
<path d="M279.479 607.845C279.479 607.845 258.764 608.17 255.891 607.845C253.542 607.571 255.466 601.15 257.99 596.904C258.488 596.021 259.065 595.185 259.714 594.405C260.747 593.384 262.01 592.625 263.396 592.19C264.783 591.756 266.253 591.659 267.685 591.907C267.685 591.907 270.908 581.915 267.685 575.469L281.053 569.299C283.044 573.454 284.715 577.755 286.05 582.164C286.37 583.272 286.621 584.398 286.8 585.537C287.75 591.907 279.479 607.845 279.479 607.845Z" fill="#24246B"/>
<path d="M279.479 607.845C279.479 607.845 258.764 608.17 255.891 607.845C253.542 607.571 255.466 601.15 257.99 596.904C267.735 583.713 278.204 600.851 278.204 600.851C282.252 595.854 284.876 587.011 286.05 582.189C286.37 583.297 286.621 584.423 286.8 585.562C287.75 591.907 279.479 607.845 279.479 607.845Z" fill="#EBF0F2"/>
<path d="M188.029 464.527C187.729 469.673 187.204 475.544 186.38 481.614C183.881 500.101 178.134 580.816 178.134 580.816C175.86 582.43 173.14 583.298 170.35 583.298C167.561 583.298 164.841 582.43 162.567 580.816L157.694 467.425L157.27 457.732L188.504 446.59C188.504 446.59 188.679 454.035 188.029 464.527Z" fill="url(#paint17_linear)"/>
<path d="M281.001 569.274C279.427 574.995 267.883 575.669 267.883 575.669L209.838 465.751C208.878 463.773 208.043 461.737 207.339 459.655C205.34 454.209 203.891 448.564 203.891 448.564L205.815 449.188L240.797 432.001L240.997 456.608V463.952C247.141 475.106 251.971 486.935 255.389 499.201C260.512 518.262 281.001 569.274 281.001 569.274Z" fill="url(#paint18_linear)"/>
<path d="M188.504 446.59C188.504 446.59 188.679 454.085 188.029 464.527L157.694 467.425L157.27 457.732L188.504 446.59Z" fill="url(#paint19_linear)"/>
<path d="M240.949 456.558L207.241 459.605C205.242 454.159 203.793 448.514 203.793 448.514L205.717 449.138L240.699 431.951L240.949 456.558Z" fill="url(#paint20_linear)"/>
<path d="M143.424 328.253C143.424 328.253 137.677 334.948 136.727 335.573C135.778 336.197 119.861 337.896 119.236 338.845C118.612 339.795 129.781 341.693 129.781 341.693C129.781 341.693 121.135 347.389 120.835 348.963C120.535 350.537 122.909 366.45 128.332 365.825C133.754 365.201 145.223 344.241 145.223 344.241L150.97 337.896L143.424 328.253Z" fill="url(#paint21_linear)"/>
<path d="M166.837 329.053L149.621 341.144L139.426 329.053C139.426 329.053 163.339 301.573 164.913 298.8C166.734 294.725 168.335 290.556 169.71 286.309L166.837 329.053Z" fill="url(#paint22_linear)"/>
<path d="M218.437 233.923C218.437 233.923 232.155 238.245 236.603 239.544C248.247 242.891 249.846 248.612 250.621 261.203C251.395 273.793 229.606 341.143 229.606 341.143L163.965 339.57C163.965 339.57 166.838 311.216 167.163 304.596C167.488 297.975 163.015 253.309 163.965 249.487C164.914 245.664 175.659 237.371 187.977 234.673L218.437 233.923Z" fill="url(#paint23_linear)"/>
<path d="M225.279 260.079C225.279 260.079 224.329 294.803 222.105 300.848C219.881 306.894 210.961 335.822 210.961 335.822L230.801 337.346L243.769 300.774L225.279 260.079Z" fill="url(#paint24_linear)"/>
<path d="M222.91 195.901C225.428 190.767 226.425 185.02 225.783 179.339C225.783 179.339 232.78 172.019 220.036 164.674C207.292 157.33 191.6 159.578 186.603 162.776C181.605 165.973 183.43 172.644 183.43 172.644C183.43 172.644 175.783 186.333 186.928 196.851L218.162 201.322L222.91 195.901Z" fill="#192EAD"/>
<path d="M191.751 233.323L183.73 236.021L194.875 301.023L222.286 234.747L214.965 233.174L191.751 233.323Z" fill="url(#paint25_linear)"/>
<path d="M202.521 239.544L194.75 300.249L204.445 239.544H202.521Z" fill="#D0D1D8"/>
<path d="M221.311 206.419C220.991 206.645 220.622 206.794 220.234 206.851C219.846 206.909 219.449 206.874 219.077 206.75C218.705 206.626 218.367 206.416 218.091 206.137C217.815 205.858 217.608 205.518 217.488 205.145C215.914 213.089 214.989 229.976 214.989 229.976C214.989 229.976 208.943 239.969 203.845 239.544C198.748 239.119 194.6 232.224 194.6 232.224L195.174 229.501L196.199 224.505C194.673 225.121 192.987 225.217 191.401 224.78C190.582 224.582 189.787 224.297 189.028 223.931C188.433 223.634 187.857 223.3 187.303 222.931C183.355 220.208 185.704 195.027 186.904 184.26C187.228 181.312 187.453 179.439 187.453 179.439C188.903 181.937 191.751 182.786 200.697 182.162C205.389 181.673 210.131 181.994 214.715 183.111C214.704 183.211 214.704 183.311 214.715 183.411C213.445 189.025 213.809 194.884 215.764 200.298C215.764 200.298 218.638 192.354 222.136 192.654C225.634 192.954 223.86 204.82 221.311 206.419Z" fill="url(#paint26_linear)"/>
<path d="M214.641 183.161C214.63 183.26 214.63 183.361 214.641 183.461C208.48 183.546 202.333 184.08 196.25 185.059C193.137 185.728 189.896 185.468 186.93 184.31C187.255 181.362 187.479 179.489 187.479 179.489C188.929 181.987 191.777 182.836 200.723 182.211C205.382 181.735 210.089 182.056 214.641 183.161Z" fill="#4864D8"/>
<path d="M206.99 217.56C206.99 217.56 203.916 228.202 195.121 229.501L196.145 224.505C194.62 225.121 192.934 225.217 191.348 224.78C194.096 225.354 199.569 224.755 206.99 217.56Z" fill="#4864D8"/>
<path d="M195.197 229.676C193.546 230.789 192.226 232.325 191.374 234.123C190.399 236.621 199.02 249.412 199.02 249.412L202.518 239.419C200.669 238.416 199.059 237.027 197.795 235.346C196.532 233.664 195.646 231.731 195.197 229.676Z" fill="#A7B3C6"/>
<path d="M214.936 229.676C216.212 230.992 217.08 232.65 217.435 234.448C217.76 236.946 206.94 249.437 206.94 249.437L204.441 239.444C208.543 236.903 212.108 233.585 214.936 229.676Z" fill="#A7B3C6"/>
<path d="M312.239 316.611L333.353 416.312C333.862 418.652 333.514 421.096 332.372 423.201C331.23 425.305 329.37 426.93 327.131 427.779C326.641 427.958 326.14 428.109 325.632 428.229L158.542 463.602C157.768 463.754 156.981 463.821 156.193 463.802C154.687 463.772 153.208 463.396 151.87 462.703C150.54 462.026 149.378 461.06 148.47 459.876C147.562 458.691 146.931 457.318 146.623 455.858L125.509 356.132C125.092 354.249 125.24 352.286 125.933 350.486C126.527 348.917 127.507 347.521 128.782 346.43C130.057 345.338 131.587 344.586 133.23 344.241L300.32 308.867C301.61 308.589 302.942 308.569 304.24 308.809C305.537 309.048 306.775 309.542 307.881 310.262C308.986 310.982 309.939 311.914 310.682 313.003C311.426 314.093 311.947 315.319 312.214 316.611H312.239Z" fill="url(#paint27_linear)"/>
<path d="M312.239 316.612L317.087 339.495C294.923 357.431 242.124 399.85 236.177 401.948C229.281 404.296 141.725 364.151 125.634 356.732V356.182C125.218 354.299 125.365 352.336 126.058 350.536C126.652 348.967 127.632 347.572 128.907 346.48C130.182 345.389 131.712 344.636 133.355 344.291L300.445 308.917C301.735 308.639 303.067 308.619 304.365 308.859C305.663 309.098 306.9 309.592 308.006 310.312C309.111 311.032 310.064 311.964 310.807 313.054C311.551 314.143 312.072 315.37 312.339 316.662L312.239 316.612Z" fill="url(#paint28_linear)"/>
<path d="M307.316 432.101L321.359 359.655L333.353 416.288C333.862 418.627 333.514 421.072 332.372 423.176C331.23 425.28 329.37 426.905 327.131 427.754C326.641 427.934 326.14 428.084 325.632 428.204L307.316 432.101Z" fill="url(#paint29_linear)"/>
<path d="M309.715 311.79L235.627 386.135C234.955 386.8 234.208 387.387 233.403 387.884C232.888 388.177 232.354 388.436 231.804 388.658C230.22 389.297 228.511 389.57 226.807 389.458L225.707 389.308C224.937 389.181 224.183 388.972 223.458 388.683L203.469 380.839L199.645 379.34L126.008 350.487C126.602 348.917 127.581 347.522 128.856 346.43C130.132 345.339 131.661 344.586 133.304 344.241L300.394 308.868C302.068 308.517 303.804 308.601 305.436 309.113C307.068 309.625 308.541 310.547 309.715 311.79Z" fill="url(#paint30_linear)"/>
<path d="M126.059 350.387C126.059 350.387 132.431 351.661 135.304 351.985C138.178 352.31 136.579 353.909 133.38 354.209C130.182 354.509 132.855 364.551 127.708 366.4C127.708 366.4 121.636 356.457 126.059 350.387Z" fill="url(#paint31_linear)"/>
<path d="M221.012 366C221.012 366 219.413 367.824 217.639 369.972C216.465 371.421 215.14 372.995 214.316 374.294C212.092 377.467 211.442 386.785 208.893 387.659C206.345 388.533 199.023 387.334 197.749 388.308C196.475 389.283 191.052 391.481 190.103 390.807C189.153 390.132 194.551 386.984 197.099 383.787C199.648 380.589 202.846 374.544 200.298 374.868C197.749 375.193 191.677 377.092 193.601 375.518C195.525 373.944 203.796 369.448 204.746 368.498C205.245 368.024 206.62 366.3 207.869 364.726C209.118 363.152 210.168 361.803 210.168 361.803L221.012 366Z" fill="url(#paint32_linear)"/>
<path d="M221.01 366C221.01 366 219.411 367.824 217.637 369.972L207.867 364.776C209.092 363.252 210.166 361.853 210.166 361.853L221.01 366Z" fill="#4864D8"/>
<path d="M254.07 304.196C253.096 310.266 247.698 323.307 238.128 339.569C228.558 355.832 222.211 368.548 222.211 368.548L214.715 365.2L207.219 361.853C207.219 361.853 213.466 348.987 218.688 337.971C224.76 325.23 230.807 307.718 230.807 300.374C230.807 293.029 222.211 268.522 226.034 255.782C226.944 252.526 228.981 249.699 231.782 247.804C234.582 245.91 237.965 245.072 241.326 245.439C242.777 245.46 244.201 245.832 245.476 246.524C246.751 247.216 247.84 248.207 248.648 249.411C251.896 255.457 255.095 298.15 254.07 304.196Z" fill="url(#paint33_linear)"/>
<path d="M254.066 304.196C253.092 310.266 247.694 323.307 238.124 339.57C228.554 355.833 222.207 368.548 222.207 368.548L214.711 365.201C239.998 342.717 244.521 308.118 248.169 293.529C251.992 278.24 241.323 245.44 241.323 245.44C242.773 245.46 244.197 245.833 245.472 246.525C246.747 247.216 247.836 248.207 248.644 249.412C251.892 255.457 255.091 298.15 254.066 304.196Z" fill="url(#paint34_linear)"/>
<path d="M47.2108 124.736L63.1104 130.286L63.797 75L23 114.557L39.8934 120.072L51.0954 101.45L47.2108 124.736Z" fill="url(#paint35_linear)"/>
<path d="M47.2108 124.736L63.1104 130.286L63.797 75L23 114.557L39.8934 120.072L51.0954 101.45L47.2108 124.736Z" fill="url(#paint36_linear)"/>
<path d="M319.508 340.639C319.508 340.639 380.072 332.177 358.968 290.559C308.234 190.581 155.598 300.864 93.9685 250.242C29.5569 197.378 41.1383 123.127 41.1383 123.127" stroke="#18317F" stroke-width="1.6" stroke-miterlimit="10" stroke-linecap="round" stroke-dasharray="5.01 6.01"/>
<defs>
<linearGradient id="paint0_linear" x1="730.923" y1="259.062" x2="129.281" y2="259.062" gradientUnits="userSpaceOnUse">
<stop stop-color="#00C6FF"/>
<stop offset="1" stop-color="#0072FF"/>
</linearGradient>
<linearGradient id="paint1_linear" x1="342.072" y1="720.517" x2="657.329" y2="362.666" gradientUnits="userSpaceOnUse">
<stop stop-color="#0072FF"/>
<stop offset="1" stop-color="#00C6FF"/>
</linearGradient>
<linearGradient id="paint2_linear" x1="377.105" y1="579.516" x2="390.324" y2="579.516" gradientUnits="userSpaceOnUse">
<stop stop-color="#546AEA"/>
<stop offset="1" stop-color="#658BFD"/>
</linearGradient>
<linearGradient id="paint3_linear" x1="6205.14" y1="3863.48" x2="6278.28" y2="3863.48" gradientUnits="userSpaceOnUse">
<stop stop-color="#546AEA"/>
<stop offset="1" stop-color="#658BFD"/>
</linearGradient>
<linearGradient id="paint4_linear" x1="421.559" y1="326.979" x2="421.559" y2="503.548" gradientUnits="userSpaceOnUse">
<stop stop-color="#24247F"/>
<stop offset="1" stop-color="#2D2D96"/>
</linearGradient>
<linearGradient id="paint5_linear" x1="542.124" y1="473.72" x2="268.14" y2="466.072" gradientUnits="userSpaceOnUse">
<stop stop-color="#242463"/>
<stop offset="1" stop-color="#242463" stop-opacity="0"/>
</linearGradient>
<linearGradient id="paint6_linear" x1="20343.9" y1="68137.3" x2="16027.6" y2="67739.9" gradientUnits="userSpaceOnUse">
<stop stop-color="#242463"/>
<stop offset="1" stop-color="#242463" stop-opacity="0"/>
</linearGradient>
<linearGradient id="paint7_linear" x1="10463" y1="8825.49" x2="10482.4" y2="9170.85" gradientUnits="userSpaceOnUse">
<stop stop-color="#546AEA"/>
<stop offset="1" stop-color="#658BFD"/>
</linearGradient>
<linearGradient id="paint8_linear" x1="4220.62" y1="3410.13" x2="4164.07" y2="3407.36" gradientUnits="userSpaceOnUse">
<stop stop-color="#546AEA"/>
<stop offset="1" stop-color="#658BFD"/>
</linearGradient>
<linearGradient id="paint9_linear" x1="4328.26" y1="3407.39" x2="4362.65" y2="3407.39" gradientUnits="userSpaceOnUse">
<stop stop-color="#546AEA"/>
<stop offset="1" stop-color="#658BFD"/>
</linearGradient>
<linearGradient id="paint10_linear" x1="14427.4" y1="11822.6" x2="13797" y2="11285.9" gradientUnits="userSpaceOnUse">
<stop stop-color="#546AEA"/>
<stop offset="1" stop-color="#658BFD"/>
</linearGradient>
<linearGradient id="paint11_linear" x1="22670.3" y1="39186.8" x2="18949.3" y2="36005.4" gradientUnits="userSpaceOnUse">
<stop stop-color="#20E3B2"/>
<stop offset="1" stop-color="#29FFC6"/>
</linearGradient>
<linearGradient id="paint12_linear" x1="18357" y1="39629.1" x2="14816" y2="37224.7" gradientUnits="userSpaceOnUse">
<stop stop-color="#20E3B2"/>
<stop offset="1" stop-color="#29FFC6"/>
</linearGradient>
<linearGradient id="paint13_linear" x1="370.636" y1="378.291" x2="446.968" y2="218.895" gradientUnits="userSpaceOnUse">
<stop stop-color="#20E3B2"/>
<stop offset="1" stop-color="#20E3B2" stop-opacity="0"/>
</linearGradient>
<linearGradient id="paint14_linear" x1="6872" y1="34355.4" x2="4214.46" y2="33741.8" gradientUnits="userSpaceOnUse">
<stop stop-color="#FF911E"/>
<stop offset="1" stop-color="#FE931E" stop-opacity="0"/>
</linearGradient>
<linearGradient id="paint15_linear" x1="14134.7" y1="16544.4" x2="14625.2" y2="16544.4" gradientUnits="userSpaceOnUse">
<stop stop-color="#546AEA"/>
<stop offset="1" stop-color="#658BFD"/>
</linearGradient>
<linearGradient id="paint16_linear" x1="10182.3" y1="25325.5" x2="10386.9" y2="25325.5" gradientUnits="userSpaceOnUse">
<stop stop-color="#546AEA"/>
<stop offset="1" stop-color="#658BFD"/>
</linearGradient>
<linearGradient id="paint17_linear" x1="9990.91" y1="44830" x2="8963.46" y2="51248.5" gradientUnits="userSpaceOnUse">
<stop stop-color="#24247F"/>
<stop offset="1" stop-color="#2D2D96"/>
</linearGradient>
<linearGradient id="paint18_linear" x1="25706.8" y1="45700.5" x2="29723.9" y2="50100.2" gradientUnits="userSpaceOnUse">
<stop stop-color="#24247F"/>
<stop offset="1" stop-color="#2D2D96"/>
</linearGradient>
<linearGradient id="paint19_linear" x1="9987.79" y1="7210.3" x2="9987.79" y2="7531.57" gradientUnits="userSpaceOnUse">
<stop stop-color="#242463"/>
<stop offset="1" stop-color="#242463" stop-opacity="0"/>
</linearGradient>
<linearGradient id="paint20_linear" x1="12625.9" y1="9254.28" x2="12625.9" y2="9820.65" gradientUnits="userSpaceOnUse">
<stop stop-color="#242463"/>
<stop offset="1" stop-color="#242463" stop-opacity="0"/>
</linearGradient>
<linearGradient id="paint21_linear" x1="9425.59" y1="11005.3" x2="9828.29" y2="11005.3" gradientUnits="userSpaceOnUse">
<stop stop-color="#546AEA"/>
<stop offset="1" stop-color="#658BFD"/>
</linearGradient>
<linearGradient id="paint22_linear" x1="179.555" y1="299.874" x2="131.013" y2="333.76" gradientUnits="userSpaceOnUse">
<stop stop-color="#E1E1E1"/>
<stop offset="1" stop-color="white"/>
</linearGradient>
<linearGradient id="paint23_linear" x1="29434" y1="30211.7" x2="26729.8" y2="26269.7" gradientUnits="userSpaceOnUse">
<stop stop-color="#20E3B2"/>
<stop offset="1" stop-color="#29FFC6"/>
</linearGradient>
<linearGradient id="paint24_linear" x1="11252" y1="22106" x2="11112.1" y2="19303.8" gradientUnits="userSpaceOnUse">
<stop stop-color="#FF911E"/>
<stop offset="1" stop-color="#FE931E" stop-opacity="0"/>
</linearGradient>
<linearGradient id="paint25_linear" x1="10990" y1="15278.1" x2="10852.8" y2="10972" gradientUnits="userSpaceOnUse">
<stop stop-color="#E1E1E1"/>
<stop offset="1" stop-color="white"/>
</linearGradient>
<linearGradient id="paint26_linear" x1="12634.6" y1="13946" x2="13242.4" y2="13946" gradientUnits="userSpaceOnUse">
<stop stop-color="#546AEA"/>
<stop offset="1" stop-color="#658BFD"/>
</linearGradient>
<linearGradient id="paint27_linear" x1="312.714" y1="326.654" x2="164.887" y2="432.458" gradientUnits="userSpaceOnUse">
<stop stop-color="#DFE1E5"/>
<stop offset="1" stop-color="#F3F3F3"/>
</linearGradient>
<linearGradient id="paint28_linear" x1="219.461" y1="213.713" x2="222.008" y2="409.917" gradientUnits="userSpaceOnUse">
<stop stop-color="#B9BEC6"/>
<stop offset="1" stop-color="#B9BEC6" stop-opacity="0"/>
</linearGradient>
<linearGradient id="paint29_linear" x1="11174" y1="24443.7" x2="9404.96" y2="24009.5" gradientUnits="userSpaceOnUse">
<stop stop-color="#B9BEC6"/>
<stop offset="1" stop-color="#B9BEC6" stop-opacity="0"/>
</linearGradient>
<linearGradient id="paint30_linear" x1="62538.5" y1="20694.9" x2="61978.8" y2="25170.1" gradientUnits="userSpaceOnUse">
<stop stop-color="#DFE1E5"/>
<stop offset="1" stop-color="#F3F3F3"/>
</linearGradient>
<linearGradient id="paint31_linear" x1="3771.26" y1="4971.45" x2="3832.43" y2="4971.45" gradientUnits="userSpaceOnUse">
<stop stop-color="#546AEA"/>
<stop offset="1" stop-color="#658BFD"/>
</linearGradient>
<linearGradient id="paint32_linear" x1="10158.3" y1="8978.39" x2="10543.5" y2="8978.39" gradientUnits="userSpaceOnUse">
<stop stop-color="#546AEA"/>
<stop offset="1" stop-color="#658BFD"/>
</linearGradient>
<linearGradient id="paint33_linear" x1="16897.7" y1="33505" x2="15933.1" y2="33461.4" gradientUnits="userSpaceOnUse">
<stop stop-color="#E1E1E1"/>
<stop offset="1" stop-color="white"/>
</linearGradient>
<linearGradient id="paint34_linear" x1="314.461" y1="331.351" x2="175.861" y2="290.238" gradientUnits="userSpaceOnUse">
<stop stop-color="#BCCACE"/>
<stop offset="1" stop-color="#BCCACE" stop-opacity="0"/>
</linearGradient>
<linearGradient id="paint35_linear" x1="-137007" y1="-34833.6" x2="-137403" y2="-35934" gradientUnits="userSpaceOnUse">
<stop stop-color="#00C2A5"/>
<stop offset="1" stop-color="#00CDBF"/>
</linearGradient>
<linearGradient id="paint36_linear" x1="23" y1="102.643" x2="63.797" y2="102.643" gradientUnits="userSpaceOnUse">
<stop stop-color="#0CEBEB"/>
<stop offset="0.5" stop-color="#20E3B2"/>
<stop offset="1" stop-color="#29FFC6"/>
</linearGradient>
</defs>
</svg>
