<svg width="120" height="29" viewBox="0 0 120 29" fill="none" xmlns="http://www.w3.org/2000/svg">
<path d="M0.015625 0.508789H4.19969V9.81947H13.0241V0.508789H17.2136V23.3636H13.0241V13.8574H4.19969V23.3636H0.015625V0.508789ZM30.4687 15.9195C30.4687 17.8327 28.9124 19.3895 27.0027 19.3895C25.0923 19.3895 23.537 17.8327 23.537 15.9195V6.07966H19.5691V15.9195C19.5691 20.0245 22.904 23.3636 27.0027 23.3636C31.1005 23.3636 34.4352 20.0245 34.4352 15.9195V6.07966H30.4687V15.9195ZM45.5123 6.19492C43.544 6.19492 42.1701 6.767 40.8433 8.07151V0.508789H36.8624V14.5246C36.8624 19.7708 40.6495 23.3636 44.9041 23.3636C49.634 23.3636 53.7782 19.7067 53.7782 14.7795C53.7782 9.91478 49.9567 6.19492 45.5123 6.19492ZM45.6112 19.675C42.9137 19.675 40.851 17.4186 40.851 14.7795C40.851 12.14 42.9137 9.88285 45.6112 9.88285C47.8968 9.88285 49.9607 12.14 49.9607 14.7795C49.9607 17.4186 47.8968 19.675 45.6112 19.675ZM60.4642 7.19942C60.4642 5.19512 61.7976 4.55965 63.2573 4.55965C64.4324 4.55965 65.9875 5.44982 67.0023 6.53108L69.6046 3.47909C68.3041 1.73067 65.6699 0.52217 63.5113 0.52217C59.1939 0.52217 56.083 3.034 56.083 7.19942C56.083 14.9251 65.5745 12.4761 65.5745 16.8012C65.5745 18.135 64.2735 19.3125 62.7824 19.3125C60.4326 19.3125 59.6704 18.1679 58.5916 16.9594L55.7024 19.9475C57.5446 22.2051 59.8293 23.3503 62.5595 23.3503C66.6541 23.3503 69.9555 20.8067 69.9555 16.8319C69.9555 8.24805 60.4642 10.919 60.4642 7.19942ZM80.4353 5.97097C76.1812 5.97097 72.3937 9.56171 72.3937 14.8091V28.861H76.3743V21.2624C77.7013 22.566 79.0745 23.139 81.0435 23.139C85.4877 23.139 89.3097 19.4196 89.3097 14.5549C89.3097 9.62697 85.1643 5.97097 80.4353 5.97097ZM81.1427 19.4515C78.4455 19.4515 76.3825 17.192 76.3825 14.5549C76.3825 11.9153 78.4455 9.65819 81.1427 9.65819C83.4278 9.65819 85.492 11.9153 85.492 14.5549C85.492 17.192 83.4278 19.4515 81.1427 19.4515ZM118.611 19.675C116.264 19.675 115.597 18.6581 115.597 17.0996V10.2007H119.247V6.70386H115.597V2.09336L111.567 3.90516V17.958C111.567 21.5511 114.042 23.3636 117.437 23.3636C117.945 23.3636 118.644 23.3308 119.025 23.2366L120.009 19.6126C119.565 19.6433 119.057 19.675 118.611 19.675Z" fill="white"/>
</svg>
